<svg>
<defs>
<symbol id="icon-horoscope-circle" viewBox="0 0 29 32">
<path d="M0 0h28.966v32h-28.966v-32z"></path>
</symbol>
<symbol id="icon-arrow" viewBox="0 0 60 32">
<path d="M56.867 2.265c1.673 1.501 1.673 4.123 0 5.624l-26.867 24.111-26.867-24.111c-1.673-1.501-1.673-4.122 0-5.624 1.436-1.288 3.611-1.288 5.047 0l21.82 19.582 21.82-19.582c1.436-1.288 3.612-1.288 5.047 0z"></path>
</symbol>
<symbol id="icon-phone" viewBox="0 0 34 32">
<path fill="#fff" style="fill: var(--color1, #fff)" d="M32.966 23.81l-5.882-3.127c-1.961-1.053-2.027-0.362-4.088 1.81-0.498 0.527-1.429 1.909-2.526 1.646-2.293-0.56-6.58-3.884-7.976-5.399-0.665-0.724-3.523-4.181-3.556-5.3-0.066-1.712 3.722-2.568 2.492-5.827l-2.625-5.827c-2.459-5.596-9.338 3.358-8.773 7.538 1.462 10.304 19.707 26.96 29.876 21.463 2.26-1.251 5.317-5.629 3.057-6.979z"></path>
</symbol>
</defs>
</svg>